<svg width="71" height="57" viewBox="0 0 71 57" fill="none" xmlns="http://www.w3.org/2000/svg">
<path d="M63.6504 0.636719C64.627 0.636719 65.8477 1.20638 67.3125 2.3457C68.9401 3.32227 69.998 4.46159 70.4863 5.76367C64.627 9.18164 60.2324 13.1693 57.3027 17.7266C54.5358 22.1211 53.1523 25.5391 53.1523 27.9805C53.1523 29.9336 53.9661 31.8867 55.5938 33.8398C57.3841 35.793 59.0931 37.7461 60.7207 39.6992C62.5111 41.6523 63.4062 43.6055 63.4062 45.5586C63.4062 48.3255 61.6973 50.7669 58.2793 52.8828C55.0241 54.9987 51.362 56.0566 47.293 56.0566C44.8516 56.0566 42.5729 55.487 40.457 54.3477C38.1784 51.0924 37.0391 45.3958 37.0391 37.2578C37.0391 33.026 37.8529 28.8757 39.4805 24.8066C41.2708 20.5749 43.3867 17.0755 45.8281 14.3086C49.2461 10.5651 52.7454 7.39128 56.3262 4.78711C60.0697 2.02018 62.5111 0.636719 63.6504 0.636719ZM27.5176 0.636719C28.4941 0.636719 29.7148 1.20638 31.1797 2.3457C32.8073 3.32227 33.8652 4.46159 34.3535 5.76367C28.4941 9.18164 24.0996 13.1693 21.1699 17.7266C18.403 22.1211 17.0195 25.5391 17.0195 27.9805C17.0195 29.9336 17.8333 31.8867 19.4609 33.8398C21.2513 35.793 22.9603 37.7461 24.5879 39.6992C26.3783 41.6523 27.2734 43.6055 27.2734 45.5586C27.2734 48.3255 25.5645 50.7669 22.1465 52.8828C18.8913 54.9987 15.2292 56.0566 11.1602 56.0566C8.71875 56.0566 6.4401 55.487 4.32422 54.3477C2.04557 51.0924 0.90625 45.3958 0.90625 37.2578C0.90625 33.026 1.72005 28.8757 3.34766 24.8066C5.13802 20.5749 7.25391 17.0755 9.69531 14.3086C13.1133 10.5651 16.6126 7.39128 20.1934 4.78711C23.9368 2.02018 26.3783 0.636719 27.5176 0.636719Z" fill="url(#paint0_linear_253_69111)"/>
<defs>
<linearGradient id="paint0_linear_253_69111" x1="-16" y1="6.5" x2="79" y2="55" gradientUnits="userSpaceOnUse">
<stop stop-color="white"/>
<stop offset="1"/>
</linearGradient>
</defs>
</svg>
